<?xml version="1.0" standalone="no"?><!DOCTYPE svg PUBLIC "-//W3C//DTD SVG 1.1//EN" "http://www.w3.org/Graphics/SVG/1.1/DTD/svg11.dtd"><svg t="1616465365511" class="icon" viewBox="0 0 1024 1024" version="1.1" xmlns="http://www.w3.org/2000/svg" p-id="2054" xmlns:xlink="http://www.w3.org/1999/xlink" width="200" height="200"><defs><style type="text/css"></style></defs><path d="M192 768c-106.048 0-192-86.016-192-192v-128a192 192 0 0 1 192-192h64L576 0v1024L256 768H192z m256 0V256l-128 128H192a64 64 0 0 0-64 64v128c0 35.392 28.608 64 64 64h128l128 128z m384-256c0 119.104-81.728 218.368-192 246.912v-136.64c38.144-22.208 64-63.04 64-110.272s-25.856-88.064-64-110.272v-136.64c110.272 28.48 192 127.744 192 246.912z" fill="#2c2c2c" p-id="2055"></path></svg>